/* XPM */
static char *abac4d7edb084f86f244a25052d6c7e5dYnOGgBxmUO96ftf[] = {
/* columns rows colors chars-per-pixel */
"64 64 36 1 ",
"  c #0D2A33",
". c #152333",
"X c #113837",
"o c #4E291B",
"O c #541D57",
"+ c #811C3D",
"@ c #9E1460",
"# c #A21565",
"$ c #AC176D",
"% c #B21872",
"& c #C41666",
"* c #C31E6B",
"= c #C61F6F",
"- c #D2247D",
"; c #E3A852",
": c #FCFC67",
"> c #6630DA",
", c #6C33E1",
"< c #6F50D2",
"1 c #7857DC",
"2 c #7A59DF",
"3 c #E76184",
"4 c #805DE5",
"5 c #EF9497",
"6 c #D08FB7",
"7 c #FF9DB6",
"8 c #C9A2B1",
"9 c #FABBBE",
"0 c #C79AD7",
"q c #D194F5",
"w c #DEC1DA",
"e c #FFE1D1",
"r c #FFE4D5",
"t c #E8E2E6",
"y c #E8E1EE",
"u c #F7E7EF",
/* pixels */
"          ....      ..        XX      XX      XX  XXXX    XX  XX",
"          ....      ..       **uuuuu* XX      XX  XXXX    XX  XX",
"  XX      XX               @***uuuuu***                     XX  ",
"  XX      XX             @@@***uuuuu**u**                   XX  ",
"  XXXX  ....            @@@*****uuu******u            XX    XX  ",
"  XXXX  ....           @@@*************uuuu           XX    XX  ",
"    XX          ..    @@@*************uuuuuuXX      XX  XX      ",
"    XX          ..   0@@****uu********uuuuuuuX      XX  XX      ",
"XX      ..XXXXXX     00@****uu********uuuuuuu   ......          ",
"XX      ..XXXXXX    000@**************uuuuuuuu  ......          ",
"  XX    ..        XX000u**********u***uuuuuuuu..  XX            ",
"  XX    ..        X000uu*********uuu**uuuuuuuuu.  XX            ",
"      ......XXXX  X00uuu*********uuu**uuuuuuuuuXXX              ",
"      ......XXXX  000uu***uuuu****u***uuuuuuuuuuXX              ",
"..      ..      X000uuu**uuuuuu********uuuuuuuuuu               ",
"..      ..      @00uu***uuuuuuuu********uuuuuuuuu*              ",
"..          XX @@*******uuuuuuuu*********uuuuuuu***         ....",
"..          XX@@@*******uuuuuuuu********************        ....",
"      ....   @@@@********uuuuuu******u***************     ..    ",
"      .... 00@@@@*********uuuu*************************   ..    ",
"      XX000000@*******************************************      ",
"      X00000000***uuu*********@@@@@@@@******u*****uuu******     ",
"       00000000***uuu****u@@@@@@@@@@@@@@@@@uuu***uuuuu***uu     ",
"      000000000***uuu***@@@@@@666666@@@@@@**u****uuuuu**uuuu    ",
"..   00000000uu*******@@@@@666666666666@@@@@@@@**uuuuu***uu**.  ",
"..  @0000000uuu****@@@@@666666666666666666@@@@@***uuu********@  ",
"....@00000000uu**@@@@@@666wwwwwwwwwwwwww666@@@@@*************@..",
"....@000000000@@@@@6666wwwwwwwwwwwyywwwwwww6666@@@@@@@*******@..",
"    @@000000@@@@@O666wwwwwyy66wwwwyy66wwwwwy6666O@@@@@@@****@@..",
"    @@@0000@@@OOOO666wwwwwyy66wwwwyy66wwwwwy6w66OOOO@@@@@@@@@@..",
"    @@@@@@@OOOOOOO6wwwwww6665666666666666wwy6wwwOOOOOOO@@@@@@@  ",
"    @@@@@@OOOOOOOO6www6ww6669666666669666wwy6wwwOOOOOOOO@@@@@@  ",
"  XXX@@@@OOOOOOOOO6www6ww699roo9999oorr96wwy6wwwOOOOOOOOO@@@@.  ",
"  XXXX@@@OOOOOOOOO6ww96ww699roorrrroorr96wwy9wwwOOOOOOOOO@@@..  ",
"      XX@@OOOOOOOO6ww96ww6977oorrrroo7796wwy9wwwOOOOOOOO@@      ",
"      XX.@@@@@@@@@6wwr6ww6977oorrrroo7796wwyrwww@@@@@@@@@       ",
"  ..    XXXXXX  XX66wr6ww699rrr++++rrrr96wwyrwww        ....    ",
"  ..    XXXXXX  XX66ww6ww699rrr++++rrrr96wwy6www        ....    ",
"XXXX              66ww6ww699rrr3333rrrr96wwy6www            ..XX",
"XXXX              666w666699rrr3333rrrr966666www            ..XX",
"  XX      ww     66666666$$44qq555544qq@@$$666www   XXww..      ",
"  XX      ww     66666666$$44qq555544qq@@$$6666ww   XXww..      ",
"....      wwwwwww666666$$$$44qq%@@#44qq@@$$$$66wwwwwwwww        ",
"....      wwwwww6666666$$$$44qq%@@#44qq@@$$$$666wwwwwwww        ",
"           6666666666$$$$$$44qq-**=44qq@@$$$$6666wwwwwwX....    ",
"           6666666666$$$$$$44qq-**=44qq$$$$$$6666666666X....    ",
"            .66666666$$$$>,;;::2<<1;;::44$$$$66666666X  ..XXXX  ",
"            .66666666$$ee,,;;::4444;;::44ee$$66666666X  ..XXXX  ",
"        XX  XXXXXX.eeee55,,,,4444444444qq55eeee       XX        ",
"        XX  XXXXXX.eeee5,,,,,4444444444qqq5eeee       XX        ",
"XX      ..    ..   ee55,,,,44444444qqqqqqqq55ee   XX..XX        ",
"XX      ..    ..   ee55,,,,44444444qqqqqqqq55ee   XX..XX        ",
"                     ,,,,,,444444qqqqqqqqqqqq     ..    ..XX  XX",
"                     ,,,,,,444444qqqqqqqqqqqqqq   ..    ..XX  XX",
"  XX  XX             ,,,,,,,,,,,,,,44444444qqqq...  ....XX  XX  ",
"  XX  XX             ,,,,,,,,,,,,,,,,,,,,,,4444...  ....XX  XX  ",
"            ..          XX 55eeX   55ee.          ..  ....XX    ",
"            ..          XX 55eeX   55ee.          ..  ....XX    ",
"                XX        X88tt    88tt         XX  XX  ..  XX  ",
"                XX        X88tt    88tt         XX  XX  ..  XX  ",
"          ..  XX           &&&&    &&&& XXXX      XX..        ..",
"          ..  XX           &&&&    &&&& XXXX      XX..        ..",
"XX  XXXX            ....   @@@@X   @@@@   XX      XX    XX      ",
"XX  XXXX            ....   @@@@X   @@@@   XX      XX    XX      "
};