/* XPM */
static char *_e49ed6830c44f12a55aa0f7bac6f03304RxkZzpD9H2kDUW[] = {
/* columns rows colors chars-per-pixel */
"64 64 161 2 ",
"   c #754524",
".  c #7F4822",
"X  c #77492B",
"o  c #7D4D2A",
"O  c #7F502F",
"+  c #844E26",
"@  c #824F2A",
"#  c #855027",
"$  c #84522D",
"%  c #8A552D",
"&  c #8B582F",
"*  c #855632",
"=  c #895631",
"-  c #875A36",
";  c #8D5B34",
":  c #8D5E39",
">  c #915E35",
",  c #905F38",
"<  c #8E613B",
"1  c #916036",
"2  c #94643C",
"3  c #98663D",
"4  c #97683E",
"5  c #9A693E",
"6  c #956640",
"7  c #966A42",
"8  c #9B6D43",
"9  c #976D48",
"0  c #9C6F49",
"q  c #9E7146",
"w  c #96724E",
"e  c #9E724A",
"r  c #936E50",
"t  c #967350",
"y  c #9D7552",
"u  c #9F7952",
"i  c #A06F43",
"p  c #A17246",
"a  c #A2754B",
"s  c #A5794E",
"d  c #A87B4E",
"f  c #A97B4F",
"g  c #A97C4E",
"h  c #AA7E4F",
"j  c #AB7F4F",
"k  c #AC7D4D",
"l  c #A97B4E",
"z  c #A37751",
"x  c #A27750",
"c  c #A37951",
"v  c #A37950",
"b  c #A37B52",
"n  c #A57A50",
"m  c #A57B51",
"M  c #A77B51",
"N  c #A47952",
"B  c #A57B52",
"V  c #A67C50",
"C  c #A57C53",
"Z  c #A67C52",
"A  c #A77C52",
"S  c #A77D52",
"D  c #A67D54",
"F  c #A77D54",
"G  c #A77E55",
"H  c #A57B52",
"J  c #A87B50",
"K  c #A87D52",
"L  c #A97D53",
"P  c #A97E52",
"I  c #A87E53",
"U  c #A87F53",
"Y  c #AA7E52",
"T  c #AC7F50",
"R  c #A97F54",
"E  c #A97E53",
"W  c #A57E58",
"Q  c #AA7F59",
"!  c #AC804F",
"~  c #AC8052",
"^  c #AC8053",
"/  c #AD8153",
"(  c #AE8153",
")  c #AF8253",
"_  c #AA8154",
"`  c #AB8055",
"'  c #AC8054",
"]  c #AC8154",
"[  c #AD8154",
"{  c #AC8155",
"}  c #AD8255",
"|  c #AD8355",
" . c #AE8254",
".. c #AC8156",
"X. c #AC8357",
"o. c #AE8356",
"O. c #AF8356",
"+. c #AE8357",
"@. c #AF8456",
"#. c #AE8457",
"$. c #AC8155",
"%. c #A6815B",
"&. c #AB8159",
"*. c #AB8358",
"=. c #AD8358",
"-. c #AD8458",
";. c #AF855A",
":. c #AF855B",
">. c #AD865D",
",. c #AE865E",
"<. c #AD845A",
"1. c #AE885F",
"2. c #B08051",
"3. c #B08456",
"4. c #B28556",
"5. c #B18556",
"6. c #B18658",
"7. c #B08659",
"8. c #B1875A",
"9. c #B1875B",
"0. c #B2875A",
"q. c #B1865A",
"w. c #B1885B",
"e. c #B2885A",
"r. c #B3885A",
"t. c #B2895B",
"y. c #B4885A",
"u. c #B1895D",
"i. c #B2895C",
"p. c #B3895C",
"a. c #B3895D",
"s. c #B18A5D",
"d. c #B38A5E",
"f. c #B48B5E",
"g. c #B68C5E",
"h. c #B38A5D",
"j. c #AF8760",
"k. c #AE8861",
"l. c #B08760",
"z. c #B18C61",
"x. c #B38E62",
"c. c #B58C60",
"v. c #B58D60",
"b. c #B58D61",
"n. c #B68D61",
"m. c #B58D63",
"M. c #B68D62",
"N. c #B78E63",
"B. c #B48C62",
"V. c #B88E62",
"C. c #B79066",
"Z. c #B89064",
"A. c #BB9266",
"S. c #BB9367",
"D. c #B99165",
"F. c #B69168",
"G. c #BC9569",
"H. c #BC956A",
"J. c #BE996D",
"K. c #C09A6D",
"L. c #C09B71",
/* pixels */
"} a 2 B f 1 -.8 7 n.A.i./ P V D s a 3 e z.7 0 s a 3 2 1 * - 3 ; e -.a a a B e a q q 2 a =.e e e 6 B a & e a 2 } / } &.p q s 7 n.",
"9.f 2 D d 2 i.4 7 n.G.9.d e s D e B 7 8 z.2 8 B d 3 3 3 X * 3 ; a -.a a e a p d e 8 7 e } e e e 3 V 8 = a 7 7 y.j } _ q e c 8 / ",
"} d 7 R p 3 e.5 q n.A.g./ e c s 8 V 7 8 i.2 7 B s 3 3 8 X ; 5 ; a ,.c a q 8 p a a 8 7 a } 8 e 8 7 D 7 ; 9.7 8 g.j } } a a c 8 T ",
"#.J 2 _ 8 3 9.2 a n.A.e.2.P c P 8 q > q e.3 7 a a 3 2 p ; 2 2 ; z ,.B 8 q e e 5 a 7 3 a R q e 3 3 V 4 7 i.3 q e.j 3.} q e a 8 3.",
"} P 1 V 8 8 9.1 a n.n.#.j P e B q e > d i.1 8 a a 7 ; p > ; 3 ; B &.V e 8 8 e 3 e 3 1 a P q e 8 6 a 1 e 9.1 a } a / } q e e 8 i.",
"=._ , 8 p p e.1 q n.9.3.d a a a a a > P g.; 8 a a 8 & 5 ; ; 3 = B -.B e 7 8 e 3 e 7 3 p R 8 e e 6 q 1 V P 1 P d d 3.f q a e 7 z.",
"} / 2 : 8 d g.> 3 Z.g.y.d e e a e a ; s 9.1 8 p a a ; ; 2 3 ; ; _ -.c e 8 0 a 1 e 8 7 e P 7 q 7 7 q = _ a 1 T V P } s p a q 3 -.",
"f } 7 $ 1 -.4.8 ; 9.n.9.p q W a 8 a > B B 1 e 8 a a 1 # 2 5 ; 0 9.R e B B 7 8 < e 7 8 B B 3 8 5 8 5 ; -.e ; P } d P a d a q 4 d ",
"f j 8 $ a 3.3.} & q g.9.p 8 C d 8 B 1 &.V = 8 7 a P 5 # = ; - z z.V e B V 7 q 3 q 4 8 =.V 7 8 4 q 5 2 i.8 = P } q d a j a q 5 B ",
"P j 5 $ d 8 3 a 7 q Z.9.a 9 e a e a 1 &.D ; 8 6 e R a & & ; : B z.D c R a 8 a 3 8 6 8 } D 2 7 1 e 3 2 i.5 ; j } q 8 p j e q 5 B ",
"P f 2 1 p ; ; ; 7 / g.} a e c 8 e e 1 >.&.1 8 6 q a e & ; 8 6 C c.D z R a e e 2 a 1 8 P D 2 8 1 0 2 2 i.2 2 } / a 7 8 } p q 8 d ",
"d a & 3 a 1 > 1 1 _ 9.j a e D 7 e e 1 ,._ 1 8 6 8 a p + 7 a 7 D c.s c B d s q 5 e 1 8 R D < 8 1 e 1 7 } ; 8 9.P s 8 8 / p 5 7 P ",
"f a = 2 p = o $ ; P =.j a 8 s 8 e 8 1 _ P 3 0 2 7 a q & D 3 7 Q A.V c D e e 4 q q 1 q B &.< q 2 7 ; e B ; B } a s p q P a 5 > 9.",
"} p ; 4 i $   o = B -.f q 7 a q a 8 3 &.s 2 8 2 8 a 7 > &.1 8 B N.P a V a e 3 q q 4 8 a &.< e ; 7 7 a 8 3 } 5 q s 5 p } d 2 1 V.",
"P a = 2 p , $ # ; B e.f 8 2 e a p p 4 =.c 2 8 6 q a 3 1 V 3 p s A.V e c s e 7 8 8 7 8 d _ ; 8 & 9 e a ; a B 2 } d 2 s 9.P 3 3 A.",
"P s = 2 a 8 & & 3 P e.a q 8 e p a a 3 a R 7 8 2 e a 2 3 e 4 p a C.D c R s 9 2 8 8 2 2 d -.2 7 1 8 e p & D 8 5 i.B 2 s 3.} 5 4 g.",
"J d 3 ; p p e 1 ; P y.a e e 0 7 d e e _ _ 8 7 2 e a , 3 8 7 p B N.D u &.e 7 2 7 8 3 2 s -.2 8 2 8 s 8 ; B 5 p R d 1 s 3.} 5 2 9.",
"d f p & P 8 3 7 ; T y.q e w 8 8 J 7 d g.} 8 7 2 q s 1 8 8 q d R N.D c W e e 8 3 5 7 3 s R 3 q 2 7 s 8 7 8 8 a P p 2 d / P 7 2 i.",
"j s p @ a P 3 p , 9.y.p c t 0 p J 3 z i.-.e 7 4 8 e 3 p 7 8 d _ B.&.z V p e 8 7 5 8 7 R c 4 8 ; q q p V 2 5 8 -.p 4 ^ P d p 2 _ ",
"3.d a $ 2 9.9.8 : i.e.s e t a 8 a 3 0 -.,.B e 8 8 7 2 q 7 e d _ z.B D &.p 7 8 8 5 7 3 _ s 7 8 ; e 7 a } 2 3 8 g.p 7 P T d s 5 e ",
"} f s = 1 } 9.8 4 ,.9.a e w a 8 a 3 7 &.,.R e 7 8 a 7 8 1 a d _ N.} R ,.s 2 7 8 3 3 5 -.c 7 8 1 a e 7 d 4 3 8 A.p 7 _ j a d 5 a ",
"T s a < 1 B 9.8 3 -.-.a y y e 7 p 6 7 D ,.d e 7 8 s 7 7 = q d _ F.} P -.d 8 8 7 2 3 8 ,.c 4 8 3 e e 8 d 8 5 p S.p 7 s d a f 5 B ",
"Y p a 2 > d 9.8 6 z.e.d c y e 7 d 8 2 e z.D z 9 7 8 7 8 = a a R F.} P =.a c 8 8 2 3 7 _ a 4 q 5 e q P e 2 8 p g.p 7 a d s P 8 B ",
"P a d ; 1 R } 8 8 ,.g.d c y e e 9.8 ; 8 B.,.z 7 8 8 a 8 : d 7 &.F.-.R &.d e 7 V 7 3 2 -.V 3 a 5 q 8 P 8 ; 8 8 9.j q s / a } p a ",
"J a d ; 1 -.} 2 q _ g.V C y e e 9.e $ e B.,.z 8 q 8 a 8 3 R 7 R N.=.B R a q 7 B 7 7 2 g.P 2 a 5 8 8 ^ 8 3 e 8 / j p s ^ s } p B ",
"T d a 6 ; P R 1 p =.n.c %.W e p i.a @ z F.,.C e a e B 3 3 _ 8 V N.=.R _ e e 8 a 1 8 2 n.V 1 p 8 q q _ 2 3 a p ^ j p j d d j 8 ,.",
"P d a q 3 d R 8 B } A.W %.&.e s =.a = C F.&.c q a e V 2 3 _ 8 R B.-.R _ a e e s 1 7 3 V.R 8 a e q 4 _ 1 5 a a -.! s / P d j 7 9.",
"P s a 8 8 d a 8 P J A.%.%.D 0 a d p > a 1.W z a q e B 1 p P 4 J z.-.B B s e 8 V 7 8 1 g.#.p d s a < _ 2 7 p s -.3.s #.P d j 8 -.",
"3.a 8 9 8 d d e T } A.D %.D 0 e d q > a z.&.D 8 8 B B ; d d 7 B i.=.D s a 9 2 d 4 8 ; 3.9.a a d e : _ 3 7 p a e.#.a 9.P a d 8 } ",
"9.a q e 8 s a p P g.G.%.%.R 9 e s 8 1 a n.&.R 3 1 _ a ; } e 3 a z.&.D B e 7 7 a 1 7 @ d g.a p P a 7 ^ 5 8 8 a 9.} p 3.R d d 8 ^ ",
"} P a q 7 V s 8 d A.H.>.W J e B d 8 2 B 1.R D 8 1 D 7 1 e.8 2 p i.R B a 8 e e a 1 7 $ a i.a d } a q P 7 e 7 a y.} a 3._ R _ a _ ",
"=.P q 7 8 -.s 8 d A.J.l.s } R B d q 1 B n.-.D V 7 D 2 2 -.8 7 8 i._ s e 8 0 8 d > 8 o d y.s J } 8 7 s 6 e 7 a g.#.d / D P / a d ",
"9.d p 5 q 9.B 8 a C.J.z.B -.J B s p 3 d S.-.c e 8 R 2 2 -.8 7 2 -.} d e q e 8 P 1 a ; P g.s V } p 6 u 8 3 8 d g.} P 3.a d d a d ",
"9.T p 7 q R B e a z.H.n.B R Y } p p 5 B n.1.c 7 8 V 1 4 i.7 8 3 _ P a 8 p 8 4 -.2 d 8 R g.e B } s 7 s 8 ; a a i.P a 3.s a a a a ",
"y.P 7 8 8 d V e a ,.H.n.R } 9.9.8 p 3 c n.i.&.e q P 2 3 9.3 a 7 d } a 8 a 7 3 i.1 q q =.n.e c _ e e V 8 2 d a e.s a 3.V j p a a ",
"9.P p e 7 a _ e V i.S.A.} } -._ e e 3 R n.-.-.e 8 R 2 3 -.2 d 8 p T a q e 4 8 =.1 8 8 &.N.e D _ 8 9 V 8 3 s a 9.a a } P / p d e ",
"} d p 8 8 a B e _ V.A.A.T j =.D a q 4 R z._ &.e 9 _ 3 2 ,.3 a 3 q j p 7 a 4 e 8 2 e q =.N.e D _ p 7 d 8 7 d p g./ a } d f a a e ",
"y.f 0 8 8 a a e P z.S.A.T f <.D e a 8 B i.} _ e 8 &.q ; ,.6 p 3 a } 7 2 e q 8 3 3 e 8 R A.B c V p 8 V 7 3 _ a y.3.d =.a a j d p ",
"g.a a e 8 p B e _ z.S.A.T a -.V z a 8 a z._ _ e 8 R e 1 ,.3 p 4 8 i.4 2 q q 4 7 0 8 7 R C.D D V 8 0 &.3 1 d 8 9.i.d -.d a P P p ",
"g.f a e 8 a P e -.n.A.A./ f i.B z a 8 e z.9._ e 7 a 8 > ,.7 8 q 1 i.8 2 7 e : 6 a q q R z.&.R P 8 e -.; 7 a 5 } g.d -.s s T d a ",
"#.P a e 8 d Y e =.z.A.V.T T n.a e a 8 a i.e.R 8 e a a ; &.a ; a 3 f 8 2 3 a ; : e e a P 1.&.R R q e -.* e d 5 ^ g.d } a V 9.R a ",
"3.a q e 8 d } p -.C.G.n.Y f 9.e r a 7 a 9.9.P 8 z a P , e R o < p a 3 2 , p 1 = 0 e p R k.D &.R q d q * &.p 5 -.g.d } c V } } q ",
"9.P 8 7 a i.T q =.A.G.N.9.f -.z w s 8 e 9.y._ 8 e p P 2 3 R o   ; a 7 3 2 e ; ; 0 p p =.z.D W R q a 2 * &.8 5 e.n.P -.&.D d P 8 ",
"9.^ 8 7 B A.s 8 &.z.G.A.9.J =.D a a e p y.e.V 3 p a =.5 ; c : o $ p p p 6 6 ; 3 e s e D N.D D _ d q 3 7 ,.7 8 g.i.} _ R } d s e ",
"=.B 8 2 a A.P e c &.L.S.e.P c a B s e a 9.y.P 3 e s R ; ; B 7 o - a a s 1 ; % 8 z p 8 D N.&.c &.V 5 2 D P 3 p g.e.#._ D } P d d ",
"} e 8 ; q 9.9.e 0 C J.A.9.P &.C s a e q e.9._ 3 e B 8 ; ; p 7 X * q p s 2 ; # a z 8 q D c.&.B ,.D 8 3 V a 3 p -.-.^ -.-.} P d p ",
"} a 8 2 8 > B C e &.H.G.g.9.,.C e a 8 p g./ _ 5 e C 2 q 5 > d & ; a 8 a 1 ; & D a 8 q &.l.Q &.-.R q 3 V d 5 8 g.#.d } -._ P e B ",
"} d < 1 8 8 s D e B.L.G.g._ =.C e a 6 a g./ R 8 a B 3 d P = V P a s 7 p 2 6 ; &.B 8 p j.,.>.j._ B 7 7 B d 1 p V.} _ #._ D _ s _ ",
"#.B ; 6 p p s R a ,.H.G.g.R &.D e a 7 a y.} _ 8 s _ 2 d n.> 8 n.e 7 p a 7 a ; C B 8 a ,.j.&.&._ e 2 7 R &.1 f A.-.} -.<.%.,.P d ",
"n.p 1 7 8 ; 7 ,.0 z L.S.V.9.&.z e a 7 s y.-.R 8 B &.3 V A.5 > &.< 5 a d q B ; a d 8 z m.,.C &.-.V 7 7 R &.1 j A.,.-._ &.j.D a V ",
"N.8 , 4 p * : ,.e a J.A.g.,.9.C c D 7 d } 9.B 8 B B 5 -.n.3.> * 1 f a P p a ; R a 8 a z.,.C R 9._ 6 7 _ R 1 a S.,.-.&.<.&.B a D ",
"N.7 2 5 p < 6 Q e z H.S.i.D ,.&.a V q a } 3.a 8 R a 3 i.9.g.5 . 8 f a ^ p a ; =.z 7 a z.,.W R } B 7 7 V _ : s N.=._ _ -.&.J a R ",
"N.8 1 2 3 8 s R 7 &.J.H.z.R =.D a P 8 a -.e.p 7 -.0 5 Z.} 9.s + 8 p a P a a ; ,.B 8 e B.j.z D &.B e 8 d =.= a z.-.&.B &.=.d p R ",
"N.8 ; 8 p 1 R R 8 B.J.A.z.9._ D c B 7 a } 9.e 8 9.7 8 J.5 8 y.3 p 8 a R a a > ,.B 8 p z.,.W c c a a 7 a ,.; p N.=.-.R &.R a a D ",
"i.p 3 8 c.T c.e 0 z.H.S.9.B R R s a 8 P ^ } 8 7 -.5 a n.# > 3.3.P q P B a B 1 ,.B e e z.&.W C C e c 3 e C.3 8 B.-.=.=.=.B d e R ",
"n.a 7 7 g.S.R 7 z C H.G.9.a _ R V a 8 P #.^ 7 7 -.8 d p 5 > 5 g.d 8 _ V e B ; &.a e a ,.&.W z R c a 3 e z., 3 N.g.-.=.R B B a B ",
"n.a 7 3 p =.7 8 B z K.A.9.^ } B a q q B -.P 8 q } 8 a 5 } p % #.P 3 B R a p % Y e e a -.&.z e B c a 4 8 1.; ; ,.g.i.R c D R a B ",
"z.B 8 8 % 3 2 ,.e z K.C.n.#.B R a 7 p B P P 8 e _ 8 1 3 9.9.% 5 } 7 a B V 7 > -.8 8 a -.=.W w a c c 4 8 z.6 @ d Z.-.D c D D q V ",
"i.T 8 _ 7 & e N.7 &.J.F.i.j P } V q p d P j e 8 _ a > > i P 5 ; V q P P V 4 > i.p p 8 =.=.W y c s C 6 8 B.c ; d n.R V B V _ e _ ",
"i.P 7 <.,.> B i.7 ,.H.A.i.a d P a 7 s d } f q e ,.a > > % 2 8 ; a e P } B e 5 9.p a 8 R } z y z a c 7 8 z.,.a R g.-.D V B _ p -.",
"} d 7 V <.2 d } 1 z.A.n.g.^ a V d 4 a s -.d q s D 8 > > 2 2 3 > 6 e P d P B 3 V c 8 8 R P z y e e B 7 3 1.,.B P i.&.C e 8 B 7 R ",
"R a 4 a _ 2 d R 1 n.Z.i.-.d s &.d 4 q a R p q B B 3 2 2 ; > 3 > 2 e P a P c > e R 7 8 } } z y e e B 7 ; &.B.7 8 e.&.D e 8 d 7 _ ",
"=.f 3 a 9.1 V P 7 g.Z.i.3.p a D a 7 8 e -.i 8 c B 3 > 3 ; * 2 ; 2 a R a B a 7 a B 7 6 _ } z y e e B e * B N.: p y.#.R a a d 7 -.",
"} f 3 a } > R s 7 n.A.i.9.T d a a 8 7 a z.p 8 a a 6 2 3 $ O 2 > 7 _ d a c a e a a 8 < z 9.c z e 8 B a $ e &.1 } 3.} D a a d 4 i."
};
